<svg id="icon-salaries" xmlns="http://www.w3.org/2000/svg" xmlns:xlink="http://www.w3.org/1999/xlink" width="70" height="70" viewBox="0 0 70 70">
  <defs>
    <linearGradient id="linear-gradient" y1="0.5" x2="1" y2="0.5" gradientUnits="objectBoundingBox">
      <stop offset="0" stop-color="#a0762f"/>
      <stop offset="0.2" stop-color="#fdc778"/>
      <stop offset="0.5" stop-color="#ebcb88"/>
      <stop offset="0.8" stop-color="#bb914a"/>
      <stop offset="1" stop-color="#a0762f"/>
    </linearGradient>
    <linearGradient id="linear-gradient-4" x1="-0.042" y1="0.237" x2="1.042" y2="0.763" xlink:href="#linear-gradient"/>
  </defs>
  <g id="Rectangle_13199" data-name="Rectangle 13199" fill="#fff" stroke="#707070" stroke-width="1" opacity="0.001">
    <rect width="70" height="70" stroke="none"/>
    <rect x="0.5" y="0.5" width="69" height="69" fill="none"/>
  </g>
  <g id="Group_14959" data-name="Group 14959" transform="translate(0 9.2)">
    <path id="Path_12540" data-name="Path 12540" d="M31.42,227.329l1.313-.478h0a1.055,1.055,0,0,0-.724-1.982l-2.313.842a1.057,1.057,0,0,0-.626,1.359l2.556,6.858-12.14,4.422L18.3,235.176l7.954-2.895a1.055,1.055,0,0,0,.628-1.362l-2.561-6.859,6.579-2.394a1.055,1.055,0,0,0-.723-1.982L22.6,222.442a1.2,1.2,0,0,0-.6.551,1.051,1.051,0,0,0-.03.807l2.558,6.863-7.956,2.9a1.072,1.072,0,0,0-.626,1.362l1.933,5.149a1.057,1.057,0,0,0,1.35.62l11.524-4.214,2.59-.923a1.05,1.05,0,0,0,.6-.553,1.064,1.064,0,0,0,.03-.811Z" transform="translate(-15.885 -189.152)" fill="url(#linear-gradient)"/>
    <path id="Path_12541" data-name="Path 12541" d="M90.882,189.443a1.06,1.06,0,0,0-.813-.661h0l-19.174-3.164a1.062,1.062,0,0,0-1.121.583A1.09,1.09,0,0,0,70,187.428l4.362,4.106-9.194,3.33a.923.923,0,0,0-.6.551,1.066,1.066,0,0,0-.03.81l2.56,6.861a1.054,1.054,0,0,0-.463,1.25,1.058,1.058,0,0,0,1.339.657l.822-.281a1.015,1.015,0,0,0,.589-.5.981.981,0,0,0,.061-.866l-2.559-6.859,9.807-3.553a1.054,1.054,0,0,0,.362-1.759l-3.091-2.909,13.984,2.307L79.786,200.8l.093-3.908a1.055,1.055,0,0,0-1.415-1.017l-6.195,2.255a1.055,1.055,0,0,0-.627,1.361l2.558,6.86-4.908,1.786a1.055,1.055,0,0,0,.722,1.982l5.906-2.15a1.056,1.056,0,0,0,.628-1.36l-2.558-6.861,3.744-1.362-.132,5.5a1.055,1.055,0,0,0,1.88.683l11.241-14.088a1.06,1.06,0,0,0,.159-1.035Z" transform="translate(-20.951 -185.606)" fill="url(#linear-gradient)"/>
    <path id="Path_12542" data-name="Path 12542" d="M48.833,196.583a15.527,15.527,0,1,0,15.381,15.526A15.471,15.471,0,0,0,48.833,196.583Zm13.345,15.526a13.347,13.347,0,1,1-13.345-13.49A13.434,13.434,0,0,1,62.179,212.109Z" transform="translate(-17.717 -186.75)" fill="url(#linear-gradient)"/>
    <path id="Path_12543" data-name="Path 12543" d="M50.857,211.981c-1.294-.7-2.081-1.187-2.081-1.972a1.314,1.314,0,0,1,1.414-1.414,1.348,1.348,0,0,1,1.413,1.414.93.93,0,0,0,1.86,0,3.218,3.218,0,0,0-2.343-3.14v-.6a.93.93,0,1,0-1.86,0v.593a3.093,3.093,0,0,0-2.343,3.146c0,1.948,1.692,2.868,3.053,3.608,1.3.7,2.081,1.187,2.081,1.972a1.86,1.86,0,1,1-3.72,0,.93.93,0,0,0-1.86,0,3.716,3.716,0,0,0,2.79,3.588v.6a.93.93,0,1,0,1.86,0v-.6a3.716,3.716,0,0,0,2.79-3.588C53.911,213.641,52.218,212.721,50.857,211.981Z" transform="translate(-19.074 -187.663)" fill="url(#linear-gradient-4)"/>
  </g>
</svg>
