<svg id="icon-innovativeculture" xmlns="http://www.w3.org/2000/svg" xmlns:xlink="http://www.w3.org/1999/xlink" width="70" height="70" viewBox="0 0 70 70">
  <defs>
    <linearGradient id="linear-gradient" x1="0.468" y1="1.22" x2="0.476" y2="-0.03" gradientUnits="objectBoundingBox">
      <stop offset="0" stop-color="#a0762f"/>
      <stop offset="0.158" stop-color="#fdc778"/>
      <stop offset="0.505" stop-color="#ebcb88"/>
      <stop offset="0.854" stop-color="#bb914a"/>
      <stop offset="1" stop-color="#a0762f"/>
    </linearGradient>
    <clipPath id="clip-path">
      <rect id="Rectangle_13202" data-name="Rectangle 13202" width="64.831" height="70" transform="translate(0 0)" fill="url(#linear-gradient)"/>
    </clipPath>
  </defs>
  <g id="Rectangle_13201" data-name="Rectangle 13201" fill="#fff" stroke="#707070" stroke-width="1" opacity="0.001">
    <rect width="70" height="70" stroke="none"/>
    <rect x="0.5" y="0.5" width="69" height="69" fill="none"/>
  </g>
  <g id="Group_14960" data-name="Group 14960" transform="translate(2.584 -0.003)" style="isolation: isolate">
    <g id="Group_14960-2" data-name="Group 14960" transform="translate(0 0.003)" clip-path="url(#clip-path)">
      <path id="Path_27100" data-name="Path 27100" d="M89.12,78.314a32.241,32.241,0,0,1-2.191-3.157,4.293,4.293,0,0,1-.818-2.329q.052-.106.1-.213c.3-.638.576-1.3.816-1.971l0-.008.067-.188a4.31,4.31,0,0,1,2.228-1.068A32.29,32.29,0,0,1,93.1,68.7c.574-.08,1.07-.148,1.471-.223a2.3,2.3,0,0,0,2.039-2.2V60.2A2.3,2.3,0,0,0,94.574,58c-.4-.074-.9-.143-1.47-.223a32.311,32.311,0,0,1-3.777-.682A4.313,4.313,0,0,1,87.1,56.025l-.061-.171-.009-.025c-.239-.667-.513-1.33-.816-1.972l0-.008-.1-.2a4.281,4.281,0,0,1,.818-2.331,32.242,32.242,0,0,1,2.191-3.156c.35-.463.652-.862.883-1.2a2.3,2.3,0,0,0-.113-3l-4.3-4.3a2.3,2.3,0,0,0-3-.113c-.336.231-.735.532-1.2.882a32.269,32.269,0,0,1-3.158,2.191,4.292,4.292,0,0,1-2.331.818l-.123-.06-.008,0a21.96,21.96,0,0,0-2.037-.848l-.211-.075a4.312,4.312,0,0,1-1.068-2.228,32.3,32.3,0,0,1-.682-3.777c-.08-.574-.149-1.07-.223-1.471a2.3,2.3,0,0,0-2.2-2.039H63.279a2.3,2.3,0,0,0-2.2,2.039c-.074.4-.143.9-.223,1.471a32.279,32.279,0,0,1-.682,3.777,4.306,4.306,0,0,1-1.069,2.229l-.022.008-.071.025a21.957,21.957,0,0,0-2.136.881l-.008,0-.143.07a4.286,4.286,0,0,1-2.331-.818,32.264,32.264,0,0,1-3.157-2.191c-.462-.349-.861-.651-1.2-.882a2.3,2.3,0,0,0-3,.113l-4.3,4.3a2.3,2.3,0,0,0-.113,3c.231.337.533.736.884,1.2a32.256,32.256,0,0,1,2.19,3.156,4.3,4.3,0,0,1,.818,2.326l-.036.073a21.924,21.924,0,0,0-.914,2.2l-.026.073-.012.033a4.306,4.306,0,0,1-2.229,1.069,32.291,32.291,0,0,1-3.777.682c-.574.08-1.07.149-1.47.223a2.3,2.3,0,0,0-2.039,2.2v6.079a2.3,2.3,0,0,0,2.039,2.2c.4.074.9.143,1.471.223a32.3,32.3,0,0,1,3.776.682,4.309,4.309,0,0,1,2.229,1.068l.013.035.025.072a21.925,21.925,0,0,0,.914,2.2l.036.074a4.309,4.309,0,0,1-.819,2.326,32.256,32.256,0,0,1-2.19,3.156c-.35.463-.652.862-.883,1.2a2.3,2.3,0,0,0,.113,3l4.3,4.3a2.075,2.075,0,0,0,1.489.61,2.679,2.679,0,0,0,1.508-.5c.336-.231.736-.533,1.2-.883a34.169,34.169,0,0,1,2.995-2.1.963.963,0,0,0-.984-1.655A35.635,35.635,0,0,0,50.08,84.5c-.444.336-.827.626-1.127.832-.157.108-.431.227-.545.113l-4.3-4.3c-.127-.127.038-.437.113-.545.206-.3.5-.683.832-1.127,1.606-2.123,3.8-5.03,3.339-7.151a.964.964,0,0,0-.077-.219l-.037-.075-.052-.106a20,20,0,0,1-.833-2.009l-.028-.078c-.017-.048-.035-.1-.051-.146a.964.964,0,0,0-.1-.212c-1.175-1.823-4.781-2.323-7.413-2.689-.551-.076-1.027-.142-1.384-.209-.129-.024-.465-.126-.465-.306V60.2c0-.18.336-.282.465-.306.358-.066.833-.132,1.384-.209,2.633-.366,6.24-.866,7.414-2.69a.962.962,0,0,0,.1-.212c.016-.048.033-.1.05-.143l.028-.079a20,20,0,0,1,.833-2.008l.053-.107.036-.073a.96.96,0,0,0,.077-.219c.467-2.121-1.733-5.029-3.338-7.152-.336-.444-.626-.827-.832-1.128-.108-.157-.227-.431-.113-.545l4.3-4.3c.127-.127.437.038.545.113.3.206.683.5,1.126.831,1.927,1.457,4.5,3.4,6.545,3.4a2.835,2.835,0,0,0,.61-.064.962.962,0,0,0,.214-.075l.262-.128a20.027,20.027,0,0,1,1.944-.8l.077-.027.132-.046a.966.966,0,0,0,.212-.1c1.824-1.175,2.324-4.781,2.69-7.414.076-.551.142-1.026.209-1.384.024-.129.126-.465.306-.465h6.079c.18,0,.282.336.306.465.066.358.132.833.209,1.384.365,2.633.866,6.239,2.69,7.414a.967.967,0,0,0,.212.1c.106.036.211.074.316.112a20.026,20.026,0,0,1,1.854.771l.244.119a.962.962,0,0,0,.216.075,2.829,2.829,0,0,0,.61.064c2.045,0,4.618-1.946,6.546-3.4.443-.335.826-.625,1.126-.83.157-.108.431-.226.545-.113l4.3,4.3c.127.127-.038.437-.113.545-.206.3-.5.684-.832,1.128-1.606,2.123-3.805,5.031-3.339,7.152a.963.963,0,0,0,.073.212l.155.321c.276.584.525,1.187.742,1.794l.009.025c.033.092.066.185.1.278a.965.965,0,0,0,.1.212c1.175,1.824,4.782,2.325,7.415,2.69.55.076,1.026.142,1.383.209.187.035.465.145.465.306v6.079c0,.18-.336.282-.465.306-.358.066-.833.132-1.384.209-2.633.365-6.239.866-7.414,2.69a.961.961,0,0,0-.1.212c-.033.1-.069.2-.1.295l0,.009c-.219.612-.47,1.217-.744,1.8q-.074.156-.15.31a.961.961,0,0,0-.077.219c-.467,2.121,1.733,5.03,3.339,7.154.336.444.625.827.831,1.127.075.109.24.418.113.545l-4.3,4.3c-.127.127-.437-.038-.545-.113-.3-.206-.683-.5-1.127-.831a35.7,35.7,0,0,0-3.164-2.211.963.963,0,1,0-.985,1.655A34.223,34.223,0,0,1,81.4,86.038c.463.35.862.652,1.2.883a2.3,2.3,0,0,0,3-.113l4.3-4.3a2.3,2.3,0,0,0,.113-3c-.231-.336-.533-.736-.883-1.2" transform="translate(-33.983 -31.076)" fill="url(#linear-gradient)"/>
      <path id="Path_27101" data-name="Path 27101" d="M271.728,256.154a29.082,29.082,0,0,0,3.455-5.331l.013-.03a18.8,18.8,0,1,0-34.672,0l.013.03a28.987,28.987,0,0,0,3.445,5.315l.219.29a41.528,41.528,0,0,1,2.292,3.512c.4.657.809,1.336,1.236,2a14.863,14.863,0,0,1,2.161,5.3.962.962,0,0,0,.324,1.869h15.292a.962.962,0,0,0,.326-1.868,14.862,14.862,0,0,1,2.161-5.3c.428-.661.839-1.34,1.237-2a41.545,41.545,0,0,1,2.291-3.512Zm-1.744-.886a42.967,42.967,0,0,0-2.4,3.675c-.391.645-.794,1.312-1.206,1.948a16.772,16.772,0,0,0-2.436,5.983H251.782a16.774,16.774,0,0,0-2.436-5.983c-.412-.637-.816-1.3-1.206-1.948a42.958,42.958,0,0,0-2.4-3.675l-.22-.291a27.653,27.653,0,0,1-3.225-4.945,16.87,16.87,0,1,1,31.134,0,27.75,27.75,0,0,1-3.235,4.96Z" transform="translate(-225.524 -211.996)" fill="url(#linear-gradient)"/>
      <path id="Path_27102" data-name="Path 27102" d="M435.194,1033.768H419.9a.963.963,0,1,0,0,1.926h15.292a.963.963,0,1,0,0-1.926" transform="translate(-395.213 -975.22)" fill="url(#linear-gradient)"/>
      <path id="Path_27103" data-name="Path 27103" d="M435.194,1095.694H419.9a.963.963,0,0,0,0,1.926h15.292a.963.963,0,0,0,0-1.926" transform="translate(-395.213 -1033.639)" fill="url(#linear-gradient)"/>
      <path id="Path_27104" data-name="Path 27104" d="M512.96,1154.72h-5.266a.963.963,0,0,0-.941.761,2.914,2.914,0,0,0-.065.609,3.665,3.665,0,0,0,7.278,0,2.922,2.922,0,0,0-.065-.609.963.963,0,0,0-.942-.761" transform="translate(-477.991 -1089.322)" fill="url(#linear-gradient)"/>
      <path id="Path_27105" data-name="Path 27105" d="M621.41,468.758a4.051,4.051,0,0,0-3.663,5.784l-3.317,3.238a.963.963,0,0,0-.29.7l.119,9.885a.963.963,0,0,0,.963.951h.012a.963.963,0,0,0,.951-.974l-.115-9.473,2.9-2.828a4.052,4.052,0,1,0,2.442-7.284m0,6.179a2.127,2.127,0,1,1,2.127-2.127,2.129,2.129,0,0,1-2.127,2.127" transform="translate(-579.358 -442.21)" fill="url(#linear-gradient)"/>
      <path id="Path_27106" data-name="Path 27106" d="M347.364,536.755l-3.316-3.238a4.061,4.061,0,1,0-1.221,1.5l2.906,2.837.106,9.2a.963.963,0,0,0,.963.952h.011a.963.963,0,0,0,.952-.974l-.111-9.6a.963.963,0,0,0-.29-.678m-9.106-4.969a2.127,2.127,0,1,1,2.127,2.127,2.129,2.129,0,0,1-2.127-2.127" transform="translate(-317.284 -497.845)" fill="url(#linear-gradient)"/>
      <path id="Path_27107" data-name="Path 27107" d="M511.743,356.553a4.052,4.052,0,1,0-5.008,3.938l.12,14.65a.963.963,0,0,0,.963.955h.008a.963.963,0,0,0,.955-.971l-.119-14.637a4.059,4.059,0,0,0,3.083-3.934m-6.179,0a2.127,2.127,0,1,1,2.127,2.127,2.129,2.129,0,0,1-2.127-2.127" transform="translate(-475.114 -332.537)" fill="url(#linear-gradient)"/>
      <path id="Path_27108" data-name="Path 27108" d="M383.36,400.3l-2.511-2.436a3.505,3.505,0,1,0-1.276,1.445l2.159,2.094.072,6.17a.963.963,0,0,0,.962.952h.012a.963.963,0,0,0,.951-.974l-.077-6.57a.963.963,0,0,0-.292-.68m-7.24-3.935a1.571,1.571,0,1,1,1.571,1.571,1.572,1.572,0,0,1-1.571-1.571" transform="translate(-353.001 -370.615)" fill="url(#linear-gradient)"/>
      <path id="Path_27109" data-name="Path 27109" d="M327.81,9.476a.963.963,0,1,0,1.779-.736L326.223.6a.963.963,0,0,0-1.78.736Z" transform="translate(-305.999 -0.003)" fill="url(#linear-gradient)"/>
      <path id="Path_27110" data-name="Path 27110" d="M8.293,336.019a.963.963,0,0,0,.738-1.779l-7.7-3.194a.963.963,0,0,0-.738,1.779Z" transform="translate(-0.001 -312.228)" fill="url(#linear-gradient)"/>
      <path id="Path_27111" data-name="Path 27111" d="M16.76,735.508a.963.963,0,0,0-1.258-.522l-7.084,2.929a.963.963,0,1,0,.736,1.779l7.084-2.929a.963.963,0,0,0,.522-1.258" transform="translate(-7.381 -693.29)" fill="url(#linear-gradient)"/>
      <path id="Path_27112" data-name="Path 27112" d="M980.332,745.219l-7.059-2.929a.963.963,0,1,0-.738,1.779L979.594,747a.963.963,0,1,0,.738-1.779" transform="translate(-916.894 -700.18)" fill="url(#linear-gradient)"/>
      <path id="Path_27113" data-name="Path 27113" d="M984.506,339.144a.963.963,0,0,0-1.258-.522l-7.687,3.179a.963.963,0,1,0,.736,1.78l7.687-3.179a.963.963,0,0,0,.522-1.258" transform="translate(-919.748 -319.375)" fill="url(#linear-gradient)"/>
      <path id="Path_27114" data-name="Path 27114" d="M731.951,13.312a.962.962,0,0,0,1.258-.52l3.371-8.125A.963.963,0,0,0,734.8,3.93l-3.371,8.125a.963.963,0,0,0,.52,1.258" transform="translate(-689.936 -3.147)" fill="url(#linear-gradient)"/>
    </g>
  </g>
</svg>
