<svg id="icon-medicalscheme" xmlns="http://www.w3.org/2000/svg" xmlns:xlink="http://www.w3.org/1999/xlink" width="70" height="70" viewBox="0 0 70 70">
  <defs>
    <linearGradient id="linear-gradient" x1="-0.026" y1="0.031" x2="1.102" y2="0.914" gradientUnits="objectBoundingBox">
      <stop offset="0" stop-color="#a0762f"/>
      <stop offset="0.2" stop-color="#fdc778"/>
      <stop offset="0.5" stop-color="#ebcb88"/>
      <stop offset="0.8" stop-color="#bb914a"/>
      <stop offset="1" stop-color="#a0762f"/>
    </linearGradient>
    <linearGradient id="linear-gradient-2" x1="0.048" y1="0.028" x2="0.952" y2="0.972" xlink:href="#linear-gradient"/>
    <linearGradient id="linear-gradient-3" x1="0.106" y1="0.079" x2="0.902" y2="0.771" xlink:href="#linear-gradient"/>
    <linearGradient id="linear-gradient-4" x1="0.107" y1="0.08" x2="0.901" y2="0.773" xlink:href="#linear-gradient"/>
    <linearGradient id="linear-gradient-5" x1="0.303" y1="-0.034" x2="0.706" y2="0.579" xlink:href="#linear-gradient"/>
    <linearGradient id="linear-gradient-6" x1="0.243" y1="-1.288" x2="0.757" y2="2.288" xlink:href="#linear-gradient"/>
    <linearGradient id="linear-gradient-7" x1="0.24" y1="-0.992" x2="0.76" y2="1.992" xlink:href="#linear-gradient"/>
    <linearGradient id="linear-gradient-8" x1="0.24" y1="-0.992" x2="0.76" y2="1.992" xlink:href="#linear-gradient"/>
    <linearGradient id="linear-gradient-9" x1="0.24" y1="-0.992" x2="0.76" y2="1.992" xlink:href="#linear-gradient"/>
    <linearGradient id="linear-gradient-10" x1="0.243" y1="-1.288" x2="0.757" y2="2.288" xlink:href="#linear-gradient"/>
    <linearGradient id="linear-gradient-11" x1="0.246" y1="-1.617" x2="0.755" y2="2.617" xlink:href="#linear-gradient"/>
    <linearGradient id="linear-gradient-12" x1="0.248" y1="-2.166" x2="0.752" y2="3.167" xlink:href="#linear-gradient"/>
  </defs>
  <g id="Rectangle_13198" data-name="Rectangle 13198" fill="#fff" stroke="#707070" stroke-width="1" opacity="0.001">
    <rect width="70" height="70" stroke="none"/>
    <rect x="0.5" y="0.5" width="69" height="69" fill="none"/>
  </g>
  <g id="Group_14958" data-name="Group 14958" transform="translate(2.771)">
    <g id="Group_7026" data-name="Group 7026">
      <path id="Path_12525" data-name="Path 12525" d="M167.861,558.545H125.79a1.389,1.389,0,0,1-1.389-1.389v-6.629h-6.715a1.388,1.388,0,0,1-1.389-1.388V489.934a1.388,1.388,0,0,1,1.389-1.389h50.175a1.388,1.388,0,0,1,1.388,1.389v12.457a1.388,1.388,0,0,1-2.777,0v-11.07h-47.4v56.429h6.717a1.388,1.388,0,0,1,1.388,1.389v6.629h39.294v-14.5a1.388,1.388,0,0,1,2.777,0v15.888A1.388,1.388,0,0,1,167.861,558.545Z" transform="translate(-116.297 -488.545)" fill="url(#linear-gradient)"/>
    </g>
    <g id="Group_7027" data-name="Group 7027" transform="translate(0.001 59.206)">
      <path id="Path_12526" data-name="Path 12526" d="M125.79,541.068a1.385,1.385,0,0,1-.978-.4l-8.1-8.018a1.388,1.388,0,1,1,1.952-1.974l8.1,8.018a1.388,1.388,0,0,1-.976,2.375Z" transform="translate(-116.297 -530.274)" fill="url(#linear-gradient-2)"/>
    </g>
    <g id="Group_7028" data-name="Group 7028" transform="translate(23.18 8.768)">
      <path id="Path_12527" data-name="Path 12527" d="M153.3,543.865a1.907,1.907,0,0,1-.65-.111,31.843,31.843,0,0,1-11.929-7.3,26.086,26.086,0,0,1-6.965-13.26,56.466,56.466,0,0,1-1.118-12.378c0-1.666.03-3.354.054-4.989q.015-1.009.028-2.019c0-.156.011-.3.018-.433,0-.05.007-.1.01-.15a1.387,1.387,0,0,1,1.21-1.3c.576-.074,1.151-.14,1.707-.206,1.216-.142,2.365-.275,3.507-.474a26.462,26.462,0,0,0,12.715-5.936,2.017,2.017,0,0,1,2.845,0,26.784,26.784,0,0,0,13.838,6.115c.9.123,1.791.219,2.735.319q.655.068,1.321.142a1.39,1.39,0,0,1,1.23,1.283c0,.043.007.087.011.131.011.135.027.3.027.488-.006,1.224,0,2.473.01,3.68.016,2.809.033,5.715-.1,8.584a34.118,34.118,0,0,1-3.327,14.005,25.089,25.089,0,0,1-10.162,10.678c-1.419.814-2.911,1.481-4.354,2.128-.576.257-1.172.523-1.748.793A2.176,2.176,0,0,1,153.3,543.865Zm.308-2.717Zm-18.121-36.611q-.008.668-.02,1.337c-.023,1.626-.048,3.307-.052,4.956a53.837,53.837,0,0,0,1.054,11.776,23.393,23.393,0,0,0,6.223,11.9,28.9,28.9,0,0,0,10.6,6.528c.516-.238,1.037-.471,1.544-.7a45.61,45.61,0,0,0,4.106-2A22.358,22.358,0,0,0,168,528.82a31.439,31.439,0,0,0,3.036-12.887c.125-2.8.108-5.668.092-8.443-.006-.973-.011-1.973-.011-2.97l-.1-.01c-.924-.1-1.88-.2-2.821-.329a29.526,29.526,0,0,1-14.883-6.44,29.192,29.192,0,0,1-13.66,6.241c-1.219.213-2.462.356-3.662.5Z" transform="translate(-132.635 -494.725)" fill="url(#linear-gradient-3)"/>
    </g>
    <g id="Group_7029" data-name="Group 7029" transform="translate(27.382 13.86)">
      <path id="Path_12528" data-name="Path 12528" d="M152.051,537.334a1.766,1.766,0,0,1-.613-.106A25.177,25.177,0,0,1,142,531.455a20.685,20.685,0,0,1-5.525-10.513,44.469,44.469,0,0,1-.881-9.742c0-1.3.023-2.623.043-3.9.007-.526.016-1.053.021-1.579,0-.131.01-.25.016-.355l.007-.114a1.389,1.389,0,0,1,1.21-1.3c.453-.058.9-.111,1.338-.162.946-.111,1.84-.214,2.726-.367a20.389,20.389,0,0,0,9.8-4.574,1.868,1.868,0,0,1,2.613,0,20.664,20.664,0,0,0,10.662,4.712c.7.1,1.393.169,2.13.247.343.037.687.072,1.034.112a1.389,1.389,0,0,1,1.23,1.283l.008.1c.01.112.023.251.023.41,0,.956,0,1.931.007,2.875.013,2.2.026,4.475-.074,6.725a27.006,27.006,0,0,1-2.632,11.07,19.906,19.906,0,0,1-8.064,8.473,37.829,37.829,0,0,1-3.431,1.677c-.45.2-.914.41-1.361.619A2.014,2.014,0,0,1,152.051,537.334Zm.345-2.711h0Zm-13.97-28.064-.011.782c-.018,1.268-.038,2.581-.041,3.868a41.746,41.746,0,0,0,.817,9.14,17.987,17.987,0,0,0,4.783,9.15,22.2,22.2,0,0,0,8.059,4.989c.367-.169.735-.333,1.094-.494,1.122-.5,2.182-.976,3.184-1.551a17.169,17.169,0,0,0,6.961-7.307,24.259,24.259,0,0,0,2.342-9.951c.1-2.181.084-4.42.071-6.585,0-.672-.007-1.362-.009-2.05-.665-.071-1.349-.145-2.025-.238a23.364,23.364,0,0,1-11.593-4.945,23.111,23.111,0,0,1-10.625,4.788c-.962.167-1.937.281-2.88.39Z" transform="translate(-135.597 -498.314)" fill="url(#linear-gradient-4)"/>
    </g>
    <g id="Group_7030" data-name="Group 7030" transform="translate(33.017 25.464)">
      <path id="Path_12529" data-name="Path 12529" d="M147.853,521.2a1.383,1.383,0,0,1-.98-.407l-6.9-6.9a1.389,1.389,0,1,1,1.964-1.964l5.915,5.917L158.8,506.9a1.388,1.388,0,0,1,1.964,1.964l-11.932,11.931A1.384,1.384,0,0,1,147.853,521.2Z" transform="translate(-139.567 -506.492)" fill="url(#linear-gradient-5)"/>
    </g>
    <g id="Group_7031" data-name="Group 7031" transform="translate(5.572 10.382)">
      <path id="Path_12530" data-name="Path 12530" d="M137.49,498.639H121.613a1.388,1.388,0,1,1,0-2.777H137.49a1.388,1.388,0,0,1,0,2.777Z" transform="translate(-120.224 -495.862)" fill="url(#linear-gradient-6)"/>
    </g>
    <g id="Group_7032" data-name="Group 7032" transform="translate(5.572 17.6)">
      <path id="Path_12531" data-name="Path 12531" d="M134.2,503.727H121.613a1.388,1.388,0,1,1,0-2.777H134.2a1.388,1.388,0,1,1,0,2.777Z" transform="translate(-120.224 -500.95)" fill="url(#linear-gradient-7)"/>
    </g>
    <g id="Group_7033" data-name="Group 7033" transform="translate(5.572 25.463)">
      <path id="Path_12532" data-name="Path 12532" d="M134.2,509.269H121.613a1.388,1.388,0,1,1,0-2.777H134.2a1.388,1.388,0,1,1,0,2.777Z" transform="translate(-120.224 -506.492)" fill="url(#linear-gradient-8)"/>
    </g>
    <g id="Group_7034" data-name="Group 7034" transform="translate(5.572 33.612)">
      <path id="Path_12533" data-name="Path 12533" d="M134.2,515.012H121.613a1.388,1.388,0,1,1,0-2.777H134.2a1.388,1.388,0,1,1,0,2.777Z" transform="translate(-120.224 -512.235)" fill="url(#linear-gradient-9)"/>
    </g>
    <g id="Group_7035" data-name="Group 7035" transform="translate(5.572 41.076)">
      <path id="Path_12534" data-name="Path 12534" d="M137.49,520.273H121.613a1.388,1.388,0,1,1,0-2.777H137.49a1.388,1.388,0,0,1,0,2.777Z" transform="translate(-120.224 -517.496)" fill="url(#linear-gradient-10)"/>
    </g>
    <g id="Group_7036" data-name="Group 7036" transform="translate(5.572 48.592)">
      <path id="Path_12535" data-name="Path 12535" d="M141.129,525.568H121.613a1.388,1.388,0,1,1,0-2.775h19.516a1.388,1.388,0,1,1,0,2.775Z" transform="translate(-120.224 -522.793)" fill="url(#linear-gradient-11)"/>
    </g>
    <g id="Group_7037" data-name="Group 7037" transform="translate(5.572 55.133)">
      <path id="Path_12536" data-name="Path 12536" d="M147.249,530.18H121.613a1.388,1.388,0,1,1,0-2.777h25.636a1.388,1.388,0,1,1,0,2.777Z" transform="translate(-120.224 -527.403)" fill="url(#linear-gradient-12)"/>
    </g>
  </g>
</svg>
