<svg id="icon-multicultural" xmlns="http://www.w3.org/2000/svg" xmlns:xlink="http://www.w3.org/1999/xlink" width="70" height="70" viewBox="0 0 70 70">
  <defs>
    <linearGradient id="linear-gradient" x1="0.5" x2="0.5" y2="1" gradientUnits="objectBoundingBox">
      <stop offset="0" stop-color="#a0762f"/>
      <stop offset="0.158" stop-color="#fdc778"/>
      <stop offset="0.505" stop-color="#ebcb88"/>
      <stop offset="0.854" stop-color="#bb914a"/>
      <stop offset="1" stop-color="#a0762f"/>
    </linearGradient>
    <clipPath id="clip-path">
      <rect id="Rectangle_13183" data-name="Rectangle 13183" width="70" height="67.857" transform="translate(0 0)" fill="url(#linear-gradient)"/>
    </clipPath>
  </defs>
  <g id="Rectangle_13200" data-name="Rectangle 13200" fill="#fff" stroke="#707070" stroke-width="1" opacity="0.001">
    <rect width="70" height="70" stroke="none"/>
    <rect x="0.5" y="0.5" width="69" height="69" fill="none"/>
  </g>
  <g id="icong-multicultural" transform="translate(0 0.933)">
    <g id="Group_14913" data-name="Group 14913" transform="translate(0 0)" clip-path="url(#clip-path)">
      <path id="Path_26861" data-name="Path 26861" d="M138.777,733.047a.858.858,0,0,0-.685.607,1.468,1.468,0,0,1-.109.234,3.551,3.551,0,0,1-3.092,1.839l-2.522.033h-.049a3.534,3.534,0,0,1-3.172-1.9.815.815,0,0,1-.05-.113.858.858,0,0,0-1.533-.221,11.21,11.21,0,0,0-1.875,6.447,9.832,9.832,0,0,0,1.52,5.181c1.339,2.056,3.871,4.165,6.535,4.241h.042c2.637-.129,5.127-2.288,6.424-4.371a9.823,9.823,0,0,0,1.415-5.208,11.2,11.2,0,0,0-2-6.409.863.863,0,0,0-.843-.357m-.024,11.068c-1.02,1.639-3.022,3.446-5.018,3.562-2-.075-4.035-1.842-5.088-3.46a8.054,8.054,0,0,1-1.243-4.292,9.3,9.3,0,0,1,.912-4.248,5.42,5.42,0,0,0,4.075,1.8l2.522-.033a5.3,5.3,0,0,0,4-1.88,9.3,9.3,0,0,1,1,4.236,8.05,8.05,0,0,1-1.156,4.315" transform="translate(-120.555 -703.116)" fill="url(#linear-gradient)"/>
      <path id="Path_26862" data-name="Path 26862" d="M39.785,48.571a.862.862,0,0,0-.962.637c-.048.188-1.23,4.6-5.721,4.6-3.842,0-5-4.638-5.045-4.834a.857.857,0,0,0-.984-.648,13.7,13.7,0,0,0-3.258,1A9.162,9.162,0,0,0,18.3,46.294a.871.871,0,0,0-.486.063c-.518.231-.518.231-.494,2.8l.006.63L14,48.194a.858.858,0,0,0-.758.008L9.952,49.863l-.026-2.639a.858.858,0,0,0-1.02-.834,10.892,10.892,0,0,0-3.8,1.51,19.768,19.768,0,0,1-2.161-7.438c-.082-1-.637-9.852,4.875-13.972a9.285,9.285,0,0,1,4.508-1.741,8.566,8.566,0,0,1,1.325-.012,9.17,9.17,0,0,1,4.513,1.65.858.858,0,0,0,1-1.4,10.867,10.867,0,0,0-5.425-1.968,9.884,9.884,0,0,0-1.535.013,10.887,10.887,0,0,0-5.181,1.911,26.852,26.852,0,0,1,6.917-14.622c.014.016.028.033.044.048a20.65,20.65,0,0,0,6.44,4.141,41.985,41.985,0,0,0-1.5,6.12.858.858,0,0,0,1.692.287,39.652,39.652,0,0,1,1.42-5.777,34.4,34.4,0,0,0,10.807,1.913v1.729a3.024,3.024,0,0,0-2.086,1.453A3.073,3.073,0,0,0,29.4,19.9a3.015,3.015,0,0,0-2.647,1.747,3.131,3.131,0,0,0-.823-.129,3.016,3.016,0,0,0-2.922,2.905h-.036c-1.321.032-1.987,1.146-2.556,2.284-.8,1.6.5,3.647.656,3.875a.858.858,0,0,0,1.429-.95c-.3-.458-.835-1.589-.551-2.157.582-1.165.855-1.33,1.021-1.335a2.161,2.161,0,0,1,.787.238.858.858,0,0,0,1.158-1.194,1.26,1.26,0,0,1-.194-.667,1.282,1.282,0,0,1,1.208-1.281,1.263,1.263,0,0,1,.828.342.858.858,0,0,0,1.438-.647c0-.018,0-.042,0-.066a1.21,1.21,0,0,1,2.276-.608.858.858,0,0,0,1.6-.47c0-.027,0-.053-.006-.08a1.281,1.281,0,0,1,1.2-1.243l.079,0a.888.888,0,0,0,.108,0l.032,0a1.288,1.288,0,0,1,1.249,1.245c0,.028-.006.06-.007.078a.858.858,0,0,0,1.6.47,1.259,1.259,0,0,1,1.028-.639A1.287,1.287,0,0,1,38.6,22.857c0,.02,0,.04,0,.056a.858.858,0,0,0,1.437.662,1.244,1.244,0,0,1,.787-.342,1.288,1.288,0,0,1,1.249,1.281,1.255,1.255,0,0,1-.194.667.858.858,0,0,0,1.158,1.194,1.245,1.245,0,0,1,.56-.177,1.288,1.288,0,0,1,1.249,1.281,1.261,1.261,0,0,1-.329.847.858.858,0,0,0,.742,1.422l.088-.02a1.287,1.287,0,0,1,1.249,1.28A1.272,1.272,0,0,1,46.1,32a.858.858,0,0,0,.136,1.428,1.268,1.268,0,0,1-.474,2.392.858.858,0,0,0-.4,1.566,1.274,1.274,0,0,1-.627,2.333.858.858,0,0,0-.717,1.228,1.257,1.257,0,0,1-.978,1.812.858.858,0,0,0-.7.572,1.172,1.172,0,0,1-1.755.69,13.3,13.3,0,0,0,1.318-3.992.85.85,0,0,0,.039-.106c.03-.022.063-.044.1-.068a2.92,2.92,0,0,0,1.279-1.94c.462-1.921-.092-2.767-.638-3.139a1.6,1.6,0,0,0-1.376-.2,1.54,1.54,0,0,1-.187-.265,2.352,2.352,0,0,1,.117-2.039.858.858,0,0,0-.952-1.236,1.766,1.766,0,0,1-1.2-.14,1.967,1.967,0,0,1-.916-1.5.858.858,0,0,0-.82-.8.876.876,0,0,0-.883.724,1.134,1.134,0,0,1-2.154.319.858.858,0,0,0-1.346-.26,1.952,1.952,0,0,1-1.607.467,1.836,1.836,0,0,1-1.053-.678.86.86,0,0,0-1.539.564,1.719,1.719,0,0,1-.647,1.388,1.489,1.489,0,0,1-1.045.2.858.858,0,0,0-.959,1.114,2.056,2.056,0,0,1-.09,1.5,1.907,1.907,0,0,1-.549.666,1.613,1.613,0,0,0-1.466.169c-.546.372-1.1,1.219-.638,3.139a2.922,2.922,0,0,0,1.279,1.94l.078.054a13.31,13.31,0,0,0,1.38,4.192,1.238,1.238,0,0,1-1.664-.771.858.858,0,0,0-1.623.556,2.94,2.94,0,0,0,4.207,1.667,7.957,7.957,0,0,0,6.3,3.469,7.983,7.983,0,0,0,6.353-3.545,3.052,3.052,0,0,0,1.529.438,3,3,0,0,0,2.551-1.565A3,3,0,0,0,45.871,41.5a2.8,2.8,0,0,0-.017-.313A2.985,2.985,0,0,0,47.3,37.05a2.983,2.983,0,0,0,.567-4.494,2.961,2.961,0,0,0,.436-1.548,3.005,3.005,0,0,0-1.852-2.759,2.954,2.954,0,0,0,.1-.771,3.02,3.02,0,0,0-2.772-2.986,3.023,3.023,0,0,0-2.965-2.976,2.944,2.944,0,0,0-.783.127A3.042,3.042,0,0,0,37.35,19.9a2.971,2.971,0,0,0-1.314.34,3.047,3.047,0,0,0-1.479-1.271V17.062a32.072,32.072,0,0,0,10.923-1.9,41.9,41.9,0,0,1,1.881,9.326.855.855,0,0,0,.076.282q-.224.3-.428.63a.852.852,0,0,0-.057.1l0,.009q-.015.031-.027.064l-.008.022,0,.01,0,.015c-.006.021-.012.041-.017.062s0,.015,0,.022-.008.04-.01.06,0,.019,0,.028,0,.036,0,.054,0,.023,0,.034,0,.032,0,.048,0,.025,0,.038,0,.029.006.044,0,.026.007.039.006.028.01.042.007.025.011.037.009.028.014.042l.014.034c.006.014.012.028.019.042l.016.032c.007.014.015.027.023.041l.02.031.026.038.024.031.027.032.031.033.026.026.04.034.025.02.046.032.018.012.008,0,.044.024.035.018.036.015.047.018.009,0a19.286,19.286,0,0,0,6.2.958,33.419,33.419,0,0,0,6.306-.674,11.846,11.846,0,0,1,1.408,3.34.858.858,0,0,0,.83.643.872.872,0,0,0,.216-.027.858.858,0,0,0,.615-1.046,12.968,12.968,0,0,0-1.93-4.3.847.847,0,0,0-.1-.135A9.068,9.068,0,0,0,53.415,21.7a7.143,7.143,0,0,0-4.46,1.514,43.166,43.166,0,0,0-1.875-8.723,20.682,20.682,0,0,0,5.867-4.111.853.853,0,0,0,.23-.42,26.906,26.906,0,0,1,6.089,9.9.858.858,0,1,0,1.621-.562A28.713,28.713,0,0,0,5.2,25.77a.853.853,0,0,0,.174.608C.64,31.345,1.154,39.6,1.236,40.6a21.533,21.533,0,0,0,2.482,8.346A11.125,11.125,0,0,0,0,56.553a.858.858,0,0,0,.319.725,21.09,21.09,0,0,0,11.555,4.6l.07,0a.858.858,0,0,0,.068-1.713,19.477,19.477,0,0,1-4.344-.854.852.852,0,0,0,.008-.121l-.04-3.431a.877.877,0,0,0-.868-.848.858.858,0,0,0-.848.868l.034,2.9a19.438,19.438,0,0,1-4.2-2.454,9.392,9.392,0,0,1,6.466-7.9l.03,2.934a.858.858,0,0,0,1.244.757l4.147-2.092,4.182,2.008a.858.858,0,0,0,1.229-.782c-.009-.9-.02-2.089-.028-2.933a7.44,7.44,0,0,1,3.226,1.94,13.6,13.6,0,0,0-6.412,10.7.856.856,0,0,0,.212.622,20.11,20.11,0,0,0,6.884,4.453.859.859,0,0,0,1.126-.451c0-.007.005-.014.008-.021a.854.854,0,0,0,.194-.543V59.773a.858.858,0,1,0-1.716,0v4.1a19.392,19.392,0,0,1-4.965-3.28,11.883,11.883,0,0,1,5.981-9.219.852.852,0,0,0,.812-.418,11.928,11.928,0,0,1,2.248-.788c.766,2.2,2.794,5.352,6.479,5.352a7.632,7.632,0,0,0,7.127-5.088c1.953.55,7.33,2.744,8.973,10.471a20.119,20.119,0,0,1-4.351,2.716V59.773a.858.858,0,1,0-1.716,0v4.575h0a29.515,29.515,0,0,1-15.784,1.262.858.858,0,1,0-.294,1.69,36.263,36.263,0,0,0,6.22.554c11.282,0,17.182-5.749,17.468-6.034a.857.857,0,0,0,.237-.765C48.928,50.1,39.876,48.585,39.785,48.571m-6.455-1.26c-3.3,0-6.188-3.2-6.9-7.634a.865.865,0,0,0-.016-.156,1.635,1.635,0,0,0-.775-1.065,1.274,1.274,0,0,1-.6-.938,2.622,2.622,0,0,1-.082-1.254,1.435,1.435,0,0,0,1.114.005,3.662,3.662,0,0,0,1.49-1.564,3.6,3.6,0,0,0,.369-1.692,3,3,0,0,0,2.237-1.769,3.4,3.4,0,0,0,.839.293,3.479,3.479,0,0,0,2.329-.345,2.858,2.858,0,0,0,2.542.783,2.826,2.826,0,0,0,1.25-.585,3.225,3.225,0,0,0,1.151,1.025,3.284,3.284,0,0,0,1,.34,3.518,3.518,0,0,0,.338,2.392,3.364,3.364,0,0,0,.982,1.1.855.855,0,0,0,.712.136.883.883,0,0,0,.422-.113,2.632,2.632,0,0,1-.082,1.251,1.277,1.277,0,0,1-.6.938,1.761,1.761,0,0,0-.684.765.865.865,0,0,0-.127.338c-.676,4.492-3.584,7.753-6.916,7.753m20.085-23.9a7.316,7.316,0,0,1,5.318,2.048,22.763,22.763,0,0,1-9.6-.057,5.476,5.476,0,0,1,4.284-1.991M15.2,9.162c-.018-.018-.037-.034-.056-.05a26.887,26.887,0,0,1,14.3-7.059c-3.438,1.755-6.413,5.579-8.436,10.826A18.927,18.927,0,0,1,15.2,9.162m7.421,4.35C25.01,7.356,28.763,3.291,32.841,2.757V15.343a32.7,32.7,0,0,1-10.221-1.83m11.937,1.833V2.742c4.164.473,7.947,4.611,10.344,10.8a30.3,30.3,0,0,1-10.344,1.8M46.5,12.86c-2.013-5.193-4.976-9.032-8.42-10.8A27.033,27.033,0,0,1,52.138,8.936a.852.852,0,0,0-.4.226,18.948,18.948,0,0,1-5.239,3.7" transform="translate(0 0.002)" fill="url(#linear-gradient)"/>
      <path id="Path_26863" data-name="Path 26863" d="M1174.109,710.228a9.038,9.038,0,0,0-4.315-.745,4.156,4.156,0,0,1-1.517-.447,8.891,8.891,0,0,0-3.726-.863,4.308,4.308,0,0,0-2.2.7.858.858,0,0,0,.888,1.469,2.649,2.649,0,0,1,1.317-.454,7.213,7.213,0,0,1,3.06.729,5.515,5.515,0,0,0,2.183.581,7.583,7.583,0,0,1,3.548.565,4.53,4.53,0,0,1,1.139.964.785.785,0,0,0-.024.093c-.171.833-.47,2.2-.831,3.667l-3.056,1.528a6.6,6.6,0,0,0-3.715-1.057,5.171,5.171,0,0,0-3.217,1.092l-1.337-.445a.858.858,0,0,0-.543,1.628l1.809.6a.858.858,0,0,0,.919-.251,3.328,3.328,0,0,1,2.368-.911,4.489,4.489,0,0,1,3.012.955.86.86,0,0,0,.99.161l2.2-1.1a18.271,18.271,0,0,1-1.487,4.122c-.5.744-1.932,1.3-3.747,1.441-2.259.18-4.035-.326-4.558-.892a7.878,7.878,0,0,1-1.1-2.89.858.858,0,0,0-1.664.416,8.632,8.632,0,0,0,1.51,3.638c1.018,1.1,3.116,1.477,4.937,1.477.353,0,.694-.014,1.016-.04,1.135-.09,3.9-.485,5.039-2.2,1.067-1.6,2.277-6.647,2.84-9.188a7.509,7.509,0,0,1,1.023,2.743,11.244,11.244,0,0,1-.868,6.33.858.858,0,0,0,1.542.752,12.976,12.976,0,0,0,1.028-7.294,10.58,10.58,0,0,0-4.452-6.879" transform="translate(-1113.102 -679.267)" fill="url(#linear-gradient)"/>
      <path id="Path_26864" data-name="Path 26864" d="M1043.894,1098.492c-.786.363-2.22,1.168-3.742,2.1a.858.858,0,0,0,.9,1.464c1.47-.9,2.836-1.67,3.565-2.007a.858.858,0,0,0-.719-1.557" transform="translate(-997.304 -1053.578)" fill="url(#linear-gradient)"/>
      <path id="Path_26865" data-name="Path 26865" d="M1318.94,1116.689l-.236-2.675a12.392,12.392,0,0,0-8.678-10.777.858.858,0,0,0-.512,1.638,10.682,10.682,0,0,1,7.481,9.29l.176,1.991a53.093,53.093,0,0,1-14.23,1.82.858.858,0,0,0,.007,1.716h.007c9.694-.076,15.195-2.037,15.424-2.12a.858.858,0,0,0,.561-.882" transform="translate(-1248.944 -1058.169)" fill="url(#linear-gradient)"/>
      <path id="Path_26866" data-name="Path 26866" d="M1322.162,1228.025a.957.957,0,1,0,.957.958.957.957,0,0,0-.957-.958" transform="translate(-1267.277 -1177.902)" fill="url(#linear-gradient)"/>
      <path id="Path_26867" data-name="Path 26867" d="M1322.162,1306.215a.957.957,0,1,0,.957.957.957.957,0,0,0-.957-.957" transform="translate(-1267.277 -1252.9)" fill="url(#linear-gradient)"/>
    </g>
  </g>
</svg>
